PathFileType	4	(X/Y/Z)	Patient4_TMGait_0pt3_02_left_04.trc.trc
DataRate	CameraRate	NumFrames	NumMarkers	Units	OrigDataRate	OrigDataStartFrame	OrigNumFrames
48.780487804878	48.780487804878	4	33	mm	48.780487804878	53	       141
Frame#	Time	Sacral			L.Shoulder			Chest			R.Shoulder			Neck			R.ASIS			L.ASIS			R.Thigh.Superior			R.Thigh.Lateral			R.Thigh.Inferior			R.Patella			L.Thigh.Superior			L.Thigh.Lateral			L.Thigh.Inferior			L.Patella			L.Shank.Superior			L.Shank.Lateral			L.Shank.Inferior			R.Shank.Superior			R.Shank.Lateral			R.Shank.Inferior			R.Heel			R.Midfoot.Superior			R.Midfoot.Lateral			R.Toe			L.Heel			L.Midfoot.Lateral			L.Midfoot.Superior			L.Toe			L.Elbow			L.Wrist			R.Elbow			R.Wrist			
		X1	Y1	Z1	X2	Y2	Z2	X3	Y3	Z3	X4	Y4	Z4	X5	Y5	Z5	X6	Y6	Z6	X7	Y7	Z7	X8	Y8	Z8	X9	Y9	Z9	X10	Y10	Z10	X11	Y11	Z11	X12	Y12	Z12	X13	Y13	Z13	X14	Y14	Z14	X15	Y15	Z15	X16	Y16	Z16	X17	Y17	Z17	X18	Y18	Z18	X19	Y19	Z19	X20	Y20	Z20	X21	Y21	Z21	X22	Y22	Z22	X23	Y23	Z23	X24	Y24	Z24	X25	Y25	Z25	X26	Y26	Z26	X27	Y27	Z27	X28	Y28	Z28	X29	Y29	Z29	X30	Y30	Z30	X31	Y31	Z31	X32	Y32	Z32	X33	Y33	Z33	

53	8.286000000000	731.451060601385	999.689177579656	435.687827611626	917.260173777627	1419.603527635450	239.715245256514	1020.493197531089	1353.819819547799	401.487937094079	941.291005503842	1434.710416439341	573.586779618109	900.078728438067	1486.012197011554	397.513318047415	960.481208859625	932.666335128047	550.397107445172	946.984029551774	950.445971814162	278.092823151031	1001.649028216913	729.551250185853	533.310333547750	925.163211062883	622.805860256164	602.784062032908	1004.561679674269	561.824777341657	527.117940770822	992.566641329417	451.106868129722	554.460400071088	1008.581119473617	746.927901529431	328.113209928600	934.769768681728	619.056293894069	275.029460587993	1020.529148890361	552.231012150988	350.362334167869	1025.116597572355	477.745872585256	362.965179023820	987.287212548847	403.913821663600	357.776629524610	890.676618491210	298.224983200005	302.339725234989	916.418473557699	186.039275114567	381.720264007427	904.692035483221	393.187660365636	562.978864428270	775.251547567128	376.035281066812	616.002022331713	750.254018698764	264.900077891900	575.531600427158	548.084631514082	234.167427510778	530.561315615255	695.572221895861	146.704811603317	598.146227430494	584.951627357183	171.365916309422	614.821589862772	732.410641586957	30.608711659136	639.442117555198	768.033766599321	40.126644104552	412.605521506839	848.952612158642	36.987691291003	339.608822102840	931.113433685559	95.583754433318	374.177820917538	1060.365146085890	39.643575298661	355.773234031714	915.464812983727	1067.992456978971	119.682986558511	985.741091850641	816.872031414657	127.000731108458	992.623127540009	1093.960062875116	708.436559588700	1147.691726753988	888.471613226923	740.372609047223	
54	8.306500000000	729.471688046672	996.724241405531	431.248836080787	918.510260691795	1418.497871829877	239.204211206249	1019.149781840888	1351.564977546671	402.032530107448	937.348075920177	1430.645225790301	573.840949918302	899.308830455281	1483.895157014673	397.636271861845	958.132788938508	931.007224788715	547.846663026111	946.741590163974	948.330254246791	275.422171801324	1005.772261897722	730.911991530985	530.201719475942	933.291634047624	622.539119050301	600.202759304286	1014.406838844987	563.556631308904	524.158945048955	1005.185300631272	451.869664837579	552.033799857591	1008.850107699384	745.001520038273	326.073791429242	935.744073592449	616.568579585259	273.706963677245	1021.533256285861	550.293178628704	349.810568579452	1026.159548941504	475.410857562461	362.788206962036	986.927995894584	401.422943039851	357.773211581765	888.925825426988	297.114508305974	301.995749185508	912.161813526613	184.765294073938	381.734379779484	916.710431891042	393.583501159115	560.680220834506	786.324805564235	377.958993885782	612.624763553652	760.784984636623	266.689422135412	573.025794771272	558.465045131148	237.047032391734	526.536233723192	705.245095076466	149.429809928114	596.050132685199	594.419248000545	174.972061428189	611.895201063271	741.063267926381	31.657349654144	639.465443533270	761.891734299441	40.154546830560	412.495617767494	842.821172514458	36.931099036451	339.514846023133	924.977812989082	95.419347632310	374.205671400719	1054.230031102428	39.574342807821	355.717030045697	926.563258926970	1067.407049187966	116.961511473200	1005.534764668377	818.933200955807	124.375388406059	970.955730057076	1086.321444307929	706.176543790150	1106.834237915006	867.824601191172	740.979310090296	
55	8.327000000000	727.418588697897	993.913196625588	427.041469806000	919.898595503816	1417.477842428686	239.018801954726	1017.745114970066	1349.377162670046	402.967887440195	933.141336748657	1426.699186695848	574.318508295414	898.541534090120	1481.885229158384	397.996622152650	955.595068938839	929.505297347369	545.725329763371	946.453803212796	946.321664228429	273.110084274309	1009.456858013270	732.675257512919	527.309462289654	941.094593551807	622.792048529729	597.884824350099	1023.757904517132	565.900009700521	521.389092860135	1017.586194135791	453.450342777253	549.729061660826	1008.866099468843	743.087331356136	324.234871336606	936.313720173900	614.197168772223	272.511721140979	1022.084299637564	548.383179479800	349.348205537994	1026.711433211663	473.172933065516	362.703831131058	986.157656885916	399.052884441611	357.815364167252	886.877919554957	296.050402352615	301.675940349761	907.777718052263	183.563728332912	381.742034712149	928.978592888084	394.358558389155	558.632663597983	797.895206018743	379.173742857299	609.676729241640	772.625799749121	267.627740755256	570.873105564818	570.183256272173	236.880197860471	523.287010435396	717.382576769396	151.217365262958	594.394316389842	606.176806631413	176.167479538754	609.672703037343	753.751450461980	32.921725081934	639.784766317182	755.745844279770	40.187949596919	412.382800615212	836.690944986992	36.874962474706	339.415600881128	918.847530811644	95.256910996869	374.217738832815	1048.093927515912	39.503203008767	355.655471365375	937.340914562677	1067.293060184860	114.470041958878	1026.059603722529	822.163749962252	122.276088711634	948.350235213559	1079.723098835426	703.567008325345	1064.686650086372	850.235234402399	740.082259507349	
56	8.347500000000	725.349609200837	991.478676406722	423.076720894128	921.446567548369	1416.716293509933	239.149838037877	1016.302121686324	1347.466194878640	404.288057549767	928.697393986571	1423.142910076642	574.976582360767	897.775549122125	1480.170736554981	398.558184101016	952.892892170366	928.327684244944	544.057245849062	946.174146159657	944.606152950512	271.205028037613	1012.586629033433	734.932216059684	524.678472212061	948.386692957112	623.681766029465	595.872853932449	1032.394049332113	568.922863250321	518.862047722845	1029.520679069492	455.963920356556	547.627396846463	1008.527193913720	741.267499109073	322.611512195322	936.265402139001	612.094847808692	271.413635921472	1021.892558064486	546.579592456849	348.930317718415	1026.435575589304	471.143248286734	362.656011971827	984.707397277800	396.934011726253	357.841807103252	884.336434021012	295.085819763670	301.339025325047	903.173594958780	182.501354939213	381.717624664130	941.317886085498	395.612231816738	556.917732462856	809.844669460486	379.650480819009	607.277202085399	785.777444925437	267.675619441464	569.192445639459	583.382552431283	233.539104931473	520.948058675282	732.058307055630	151.957693019950	593.306928114118	620.330502956918	174.819254483997	608.271252702092	770.556402255496	34.291138418499	640.499368062192	749.587840717097	40.221381139138	412.265505218206	830.556077282634	36.818459893013	339.309360846143	912.715520221399	95.104943866060	374.203045066346	1041.952086126097	39.433711176210	355.591665409758	947.719275266796	1067.807798508278	112.191536899485	1047.187357922234	826.842655306590	120.693072918446	925.021898385024	1074.520466489676	700.606488674265	1021.873771287497	836.041251001974	737.715912825097	
